<mxfile host="app.diagrams.net" modified="2024-06-11T04:04:13.192Z" agent="Mozilla/5.0 (Windows NT 10.0; Win64; x64) AppleWebKit/537.36 (KHTML, like Gecko) Chrome/125.0.0.0 Safari/537.36 Edg/125.0.0.0" etag="3EsbXLgwJbx-D-QyXlSu" version="24.4.10" type="github">
  <diagram id="prtHgNgQTEPvFCAcTncT" name="Page-1">
    <mxGraphModel dx="2787" dy="884" grid="1" gridSize="10" guides="1" tooltips="1" connect="1" arrows="1" fold="1" page="1" pageScale="1" pageWidth="827" pageHeight="1169" math="0" shadow="0">
      <root>
        <mxCell id="0" />
        <mxCell id="1" parent="0" />
        <mxCell id="E3vst3PBMyqMZj28GC8u-21" style="edgeStyle=orthogonalEdgeStyle;rounded=0;orthogonalLoop=1;jettySize=auto;html=1;" edge="1" parent="1" source="E3vst3PBMyqMZj28GC8u-1" target="E3vst3PBMyqMZj28GC8u-6">
          <mxGeometry relative="1" as="geometry" />
        </mxCell>
        <mxCell id="E3vst3PBMyqMZj28GC8u-22" style="edgeStyle=orthogonalEdgeStyle;rounded=0;orthogonalLoop=1;jettySize=auto;html=1;" edge="1" parent="1" source="E3vst3PBMyqMZj28GC8u-1" target="E3vst3PBMyqMZj28GC8u-2">
          <mxGeometry relative="1" as="geometry">
            <Array as="points">
              <mxPoint x="390" y="100" />
              <mxPoint x="210" y="100" />
            </Array>
          </mxGeometry>
        </mxCell>
        <mxCell id="E3vst3PBMyqMZj28GC8u-23" style="edgeStyle=orthogonalEdgeStyle;rounded=0;orthogonalLoop=1;jettySize=auto;html=1;" edge="1" parent="1" source="E3vst3PBMyqMZj28GC8u-1" target="E3vst3PBMyqMZj28GC8u-4">
          <mxGeometry relative="1" as="geometry">
            <Array as="points">
              <mxPoint x="390" y="100" />
              <mxPoint x="550" y="100" />
            </Array>
          </mxGeometry>
        </mxCell>
        <mxCell id="E3vst3PBMyqMZj28GC8u-1" value="&lt;div&gt;0.0&lt;/div&gt;Proses Penyediaan Barang" style="rounded=1;whiteSpace=wrap;html=1;" vertex="1" parent="1">
          <mxGeometry x="330" width="120" height="70" as="geometry" />
        </mxCell>
        <mxCell id="E3vst3PBMyqMZj28GC8u-18" style="edgeStyle=orthogonalEdgeStyle;rounded=0;orthogonalLoop=1;jettySize=auto;html=1;" edge="1" parent="1" source="E3vst3PBMyqMZj28GC8u-2" target="E3vst3PBMyqMZj28GC8u-5">
          <mxGeometry relative="1" as="geometry" />
        </mxCell>
        <mxCell id="E3vst3PBMyqMZj28GC8u-20" style="edgeStyle=orthogonalEdgeStyle;rounded=0;orthogonalLoop=1;jettySize=auto;html=1;" edge="1" parent="1" source="E3vst3PBMyqMZj28GC8u-2" target="E3vst3PBMyqMZj28GC8u-7">
          <mxGeometry relative="1" as="geometry">
            <Array as="points">
              <mxPoint x="210" y="240" />
              <mxPoint x="340" y="240" />
            </Array>
          </mxGeometry>
        </mxCell>
        <mxCell id="E3vst3PBMyqMZj28GC8u-2" value="1.0&lt;div&gt;Divisi Logistik&lt;/div&gt;" style="rounded=1;whiteSpace=wrap;html=1;" vertex="1" parent="1">
          <mxGeometry x="150" y="140" width="120" height="60" as="geometry" />
        </mxCell>
        <mxCell id="E3vst3PBMyqMZj28GC8u-27" style="edgeStyle=orthogonalEdgeStyle;rounded=0;orthogonalLoop=1;jettySize=auto;html=1;" edge="1" parent="1" source="E3vst3PBMyqMZj28GC8u-3" target="E3vst3PBMyqMZj28GC8u-26">
          <mxGeometry relative="1" as="geometry" />
        </mxCell>
        <mxCell id="E3vst3PBMyqMZj28GC8u-29" style="edgeStyle=orthogonalEdgeStyle;rounded=0;orthogonalLoop=1;jettySize=auto;html=1;" edge="1" parent="1" source="E3vst3PBMyqMZj28GC8u-3" target="E3vst3PBMyqMZj28GC8u-28">
          <mxGeometry relative="1" as="geometry" />
        </mxCell>
        <mxCell id="E3vst3PBMyqMZj28GC8u-3" value="&lt;div&gt;1.1.1&lt;/div&gt;Mitra Gudang" style="rounded=1;whiteSpace=wrap;html=1;" vertex="1" parent="1">
          <mxGeometry x="40" y="400" width="120" height="60" as="geometry" />
        </mxCell>
        <mxCell id="E3vst3PBMyqMZj28GC8u-4" value="3.0&lt;div&gt;Permintaan Barang Oleh Customer&lt;/div&gt;" style="rounded=1;whiteSpace=wrap;html=1;" vertex="1" parent="1">
          <mxGeometry x="490" y="140" width="120" height="60" as="geometry" />
        </mxCell>
        <mxCell id="E3vst3PBMyqMZj28GC8u-25" style="edgeStyle=orthogonalEdgeStyle;rounded=0;orthogonalLoop=1;jettySize=auto;html=1;entryX=0.5;entryY=0;entryDx=0;entryDy=0;" edge="1" parent="1" source="E3vst3PBMyqMZj28GC8u-5" target="E3vst3PBMyqMZj28GC8u-3">
          <mxGeometry relative="1" as="geometry" />
        </mxCell>
        <mxCell id="E3vst3PBMyqMZj28GC8u-5" value="&lt;div&gt;1.1&lt;/div&gt;Pesan Permintaan Status Stok Barang" style="rounded=1;whiteSpace=wrap;html=1;" vertex="1" parent="1">
          <mxGeometry x="40" y="290" width="120" height="60" as="geometry" />
        </mxCell>
        <mxCell id="E3vst3PBMyqMZj28GC8u-6" value="&lt;div&gt;2.0&lt;/div&gt;Dokumen Permintaan Barang (Material Request)" style="rounded=1;whiteSpace=wrap;html=1;" vertex="1" parent="1">
          <mxGeometry x="330" y="140" width="120" height="60" as="geometry" />
        </mxCell>
        <mxCell id="E3vst3PBMyqMZj28GC8u-43" style="edgeStyle=orthogonalEdgeStyle;rounded=0;orthogonalLoop=1;jettySize=auto;html=1;" edge="1" parent="1" source="E3vst3PBMyqMZj28GC8u-7" target="E3vst3PBMyqMZj28GC8u-42">
          <mxGeometry relative="1" as="geometry" />
        </mxCell>
        <mxCell id="E3vst3PBMyqMZj28GC8u-46" style="edgeStyle=orthogonalEdgeStyle;rounded=0;orthogonalLoop=1;jettySize=auto;html=1;" edge="1" parent="1" source="E3vst3PBMyqMZj28GC8u-7" target="E3vst3PBMyqMZj28GC8u-41">
          <mxGeometry relative="1" as="geometry">
            <Array as="points">
              <mxPoint x="380" y="370" />
              <mxPoint x="540" y="370" />
            </Array>
          </mxGeometry>
        </mxCell>
        <mxCell id="E3vst3PBMyqMZj28GC8u-7" value="1.2&lt;div&gt;Evaluasi Permintaan Barang&lt;/div&gt;" style="rounded=1;whiteSpace=wrap;html=1;" vertex="1" parent="1">
          <mxGeometry x="320" y="290" width="120" height="60" as="geometry" />
        </mxCell>
        <mxCell id="E3vst3PBMyqMZj28GC8u-26" value="1.1.1.1&lt;div&gt;Periksa Ketersediaan Barang di Gudang&lt;/div&gt;" style="rounded=1;whiteSpace=wrap;html=1;" vertex="1" parent="1">
          <mxGeometry x="-60" y="555" width="120" height="60" as="geometry" />
        </mxCell>
        <mxCell id="E3vst3PBMyqMZj28GC8u-28" value="1.1.1.2&lt;div&gt;Kirim Status Ketersediaan Barang&lt;/div&gt;" style="rounded=1;whiteSpace=wrap;html=1;" vertex="1" parent="1">
          <mxGeometry x="100" y="555" width="120" height="60" as="geometry" />
        </mxCell>
        <mxCell id="E3vst3PBMyqMZj28GC8u-35" style="edgeStyle=orthogonalEdgeStyle;rounded=0;orthogonalLoop=1;jettySize=auto;html=1;entryX=0.5;entryY=0;entryDx=0;entryDy=0;" edge="1" parent="1" source="E3vst3PBMyqMZj28GC8u-30">
          <mxGeometry relative="1" as="geometry">
            <mxPoint x="310" y="695" as="targetPoint" />
          </mxGeometry>
        </mxCell>
        <mxCell id="E3vst3PBMyqMZj28GC8u-30" value="&lt;div&gt;1.2.1.1&lt;/div&gt;Ketersediaan Barang" style="rounded=1;whiteSpace=wrap;html=1;" vertex="1" parent="1">
          <mxGeometry x="270" y="585" width="120" height="60" as="geometry" />
        </mxCell>
        <mxCell id="E3vst3PBMyqMZj28GC8u-37" style="edgeStyle=orthogonalEdgeStyle;rounded=0;orthogonalLoop=1;jettySize=auto;html=1;" edge="1" parent="1" source="E3vst3PBMyqMZj28GC8u-31">
          <mxGeometry relative="1" as="geometry">
            <mxPoint x="450" y="695" as="targetPoint" />
          </mxGeometry>
        </mxCell>
        <mxCell id="E3vst3PBMyqMZj28GC8u-40" style="edgeStyle=orthogonalEdgeStyle;rounded=0;orthogonalLoop=1;jettySize=auto;html=1;" edge="1" parent="1" source="E3vst3PBMyqMZj28GC8u-31">
          <mxGeometry relative="1" as="geometry">
            <mxPoint x="600.0000000000002" y="695" as="targetPoint" />
            <Array as="points">
              <mxPoint x="450" y="635" />
              <mxPoint x="600" y="635" />
            </Array>
          </mxGeometry>
        </mxCell>
        <mxCell id="E3vst3PBMyqMZj28GC8u-31" value="&lt;div&gt;1.2.1.2&lt;/div&gt;Ketidak tersediaan Barang" style="rounded=1;whiteSpace=wrap;html=1;" vertex="1" parent="1">
          <mxGeometry x="440" y="575" width="120" height="60" as="geometry" />
        </mxCell>
        <mxCell id="E3vst3PBMyqMZj28GC8u-32" value="1.2.1.1.1&lt;div&gt;Surat Perintah Pengeluaran Barang&lt;/div&gt;" style="rounded=1;whiteSpace=wrap;html=1;" vertex="1" parent="1">
          <mxGeometry x="260" y="660" width="120" height="60" as="geometry" />
        </mxCell>
        <mxCell id="E3vst3PBMyqMZj28GC8u-36" value="1.2.1.2.1&lt;div&gt;Surat Permintaan Pengadaan Barang&lt;/div&gt;" style="rounded=1;whiteSpace=wrap;html=1;" vertex="1" parent="1">
          <mxGeometry x="400" y="660" width="120" height="60" as="geometry" />
        </mxCell>
        <mxCell id="E3vst3PBMyqMZj28GC8u-38" value="1.2.1.2.2&lt;div&gt;&lt;span style=&quot;background-color: initial;&quot;&gt;Pembelian / Pengadaan&lt;/span&gt;&lt;/div&gt;" style="rounded=1;whiteSpace=wrap;html=1;" vertex="1" parent="1">
          <mxGeometry x="550" y="660" width="120" height="60" as="geometry" />
        </mxCell>
        <mxCell id="E3vst3PBMyqMZj28GC8u-41" value="1.2.2&lt;div&gt;Ketersediaan Barang Belum Pasti&lt;/div&gt;" style="rounded=1;whiteSpace=wrap;html=1;" vertex="1" parent="1">
          <mxGeometry x="510" y="420" width="120" height="60" as="geometry" />
        </mxCell>
        <mxCell id="E3vst3PBMyqMZj28GC8u-47" style="edgeStyle=orthogonalEdgeStyle;rounded=0;orthogonalLoop=1;jettySize=auto;html=1;" edge="1" parent="1" source="E3vst3PBMyqMZj28GC8u-42" target="E3vst3PBMyqMZj28GC8u-30">
          <mxGeometry relative="1" as="geometry" />
        </mxCell>
        <mxCell id="E3vst3PBMyqMZj28GC8u-48" style="edgeStyle=orthogonalEdgeStyle;rounded=0;orthogonalLoop=1;jettySize=auto;html=1;entryX=0.5;entryY=0;entryDx=0;entryDy=0;" edge="1" parent="1" source="E3vst3PBMyqMZj28GC8u-42" target="E3vst3PBMyqMZj28GC8u-31">
          <mxGeometry relative="1" as="geometry" />
        </mxCell>
        <mxCell id="E3vst3PBMyqMZj28GC8u-42" value="&lt;div&gt;1.2.1&lt;/div&gt;Ketersediaan Barang Pasti" style="rounded=1;whiteSpace=wrap;html=1;" vertex="1" parent="1">
          <mxGeometry x="320" y="410" width="120" height="60" as="geometry" />
        </mxCell>
        <mxCell id="E3vst3PBMyqMZj28GC8u-49" value="&lt;div&gt;1.2.2.1&lt;/div&gt;Penelusuran Status Pembelian Ke Supplier" style="rounded=1;whiteSpace=wrap;html=1;" vertex="1" parent="1">
          <mxGeometry x="640" y="575" width="120" height="60" as="geometry" />
        </mxCell>
        <mxCell id="E3vst3PBMyqMZj28GC8u-50" style="edgeStyle=orthogonalEdgeStyle;rounded=0;orthogonalLoop=1;jettySize=auto;html=1;entryX=0.494;entryY=0.088;entryDx=0;entryDy=0;entryPerimeter=0;" edge="1" parent="1" source="E3vst3PBMyqMZj28GC8u-41" target="E3vst3PBMyqMZj28GC8u-49">
          <mxGeometry relative="1" as="geometry">
            <Array as="points">
              <mxPoint x="580" y="540" />
              <mxPoint x="699" y="540" />
            </Array>
          </mxGeometry>
        </mxCell>
      </root>
    </mxGraphModel>
  </diagram>
</mxfile>
